<?xml version="1.0" standalone="no"?>
<svg class="" width="1506px" height="1198px" viewBox="0 0 1506 1198" version="1.1" xmlns="http://www.w3.org/2000/svg" xmlns:xlink="http://www.w3.org/1999/xlink">
    <!-- Generator: Sketch 63.1 (92452) - https://sketch.com -->
    <title>Business Man Working</title>
    <desc>Created by Webpixels.</desc>
    <g id="Page-1" stroke="none" stroke-width="1" fill="none" fill-rule="evenodd">
        <g id="business-man-working" transform="translate(2.000000, 2.000000)">
            <g id="Group" transform="translate(46.000000, 172.000000)">
                <g transform="translate(118.000000, 418.000000)" id="Path" stroke="#F1F2F7" stroke-linecap="round" stroke-linejoin="round" stroke-width="7">
                    <line x1="95.6" y1="0.3" x2="0.3" y2="503.7"></line>
                    <line x1="243.6" y1="0.3" x2="338.8" y2="503.7"></line>
                </g>
                <rect id="Rectangle" fill="#F1F2F7" fill-rule="nonzero" x="21.8" y="25.4" width="533.6" height="367.2"></rect>
                <path d="M88.8,310 C87.9,310 86.9,309.6 86.2,308.9 C84.9,307.5 85,305.3 86.4,304 L160.1,236 C160.9,235.2 162,234.9 163.1,235.1 L215.7,245 L277.9,183.9 C279.2,182.7 281.1,182.6 282.5,183.6 L316.4,210.3 L346.8,189.1 C347.8,188.4 349,188.3 350.1,188.7 L380.6,201.5 L477.4,116.8 C478.9,115.5 481.1,115.7 482.3,117.1 C483.6,118.6 483.4,120.8 482,122 L383.5,208.2 C382.5,209.1 381.1,209.3 379.8,208.8 L349,195.9 L318,217.5 C316.7,218.4 315,218.3 313.8,217.4 L280.3,191 L219,251.2 C218.2,252 217,252.4 215.9,252.1 L163.2,242.2 L91.2,309 C90.5,309.7 89.7,310 88.8,310 Z" id="Path" fill="#56b35f" fill-rule="nonzero"></path>
                <rect id="Rectangle" fill="#0666db" fill-rule="nonzero" x="0.9" y="0.5" width="573.3" height="24.9"></rect>
                <rect id="Rectangle" fill="#0666db" fill-rule="nonzero" x="0.9" y="393.3" width="573.3" height="24.9"></rect>
                <polygon id="Path" fill="#56b35f" fill-rule="nonzero" points="467.5 112.5 485.5 133 491.7 108.1"></polygon>
            </g>
            <line x1="1501.6" y1="1106.7" x2="1091.4" y2="180.7" id="Path" stroke="#0666db" stroke-width="3" opacity="0.15" stroke-linecap="round" stroke-linejoin="round"></line>
            <line x1="1053.1" y1="180.7" x2="901.3" y2="516.7" id="Path" stroke="#0666db" stroke-width="3" opacity="0.15" stroke-linecap="round" stroke-linejoin="round"></line>
            <circle id="Oval" fill="#0666db" fill-rule="nonzero" cx="1072.3" cy="186.7" r="19.2"></circle>
            <line x1="1022.3" y1="1192.3" x2="1058" y2="896.3" id="Path" stroke="#CED5E5" stroke-width="7" stroke-linecap="round" stroke-linejoin="round"></line>
            <path d="M1001.2,1088.5 L1008.1,1112.9 C1008.1,1112.9 985.8,1132.9 979.8,1148 C973.8,1163.1 979.8,1177.1 979.8,1177.1 L1051.6,1121.9 L1038.4,1078.5 L1001.2,1088.5 Z" id="Path" fill="#283444" fill-rule="nonzero"></path>
            <g id="Group" transform="translate(693.000000, 526.000000)" fill-rule="nonzero">
                <polygon id="Path" fill="#283444" points="278.8 185.4 12.5 185.4 0.7 0.4 267 0.4"></polygon>
                <polygon id="Path" fill="#F1F2F7" points="266.6 173.3 24.6 173.3 12.8 12.6 254.8 12.6"></polygon>
                <rect id="Rectangle" fill="#283444" x="133.8" y="179.2" width="16.3" height="32.6"></rect>
                <path d="M170.6,211.7 L113.4,211.7 L113.4,206.3 C113.4,203.8 115.4,201.9 117.8,201.9 L166.1,201.9 C168.6,201.9 170.5,203.9 170.5,206.3 L170.5,211.7 L170.6,211.7 Z" id="Path" fill="#283444"></path>
            </g>
            <path d="M1033.8,790.3 C1033.8,790.3 882.9,814.1 867.3,836 C851.6,857.9 867.3,893 867.3,893 L934.9,1102.1 L981,1085.3 L931.2,873.5 L1136.6,872.9 C1136.6,872.9 1192.4,873 1199.8,806.5 L1033.8,790.3 Z" id="Path" fill="#8B34FF" fill-rule="nonzero"></path>
            <polygon id="Path" fill="#8B34FF" fill-rule="nonzero" points="995.2 1090.1 931.1 873.6 992.5 861.1 1046.3 1076.4"></polygon>
            <rect id="Rectangle" fill="#F1F2F7" fill-rule="nonzero" x="420.2" y="737.7" width="831.5" height="48.8"></rect>
            <path d="M856.6,652.6 C856.6,652.6 929.9,735.2 946.1,737.8 C962.4,740.3 1013.1,662.7 1013.1,662.7 C1013.1,662.7 1052.5,747.2 1033.8,790.4 C1033.8,790.4 1076.4,819.8 1129,827.3 C1181.6,834.8 1199.8,806.6 1199.8,806.6 C1199.8,806.6 1218,680.8 1205.4,641.9 C1192.9,603.1 1164.7,574.3 1140.9,563.6 C1117.1,552.9 1048.3,556.7 1033.2,557.3 C1018.2,557.9 1000,582.3 985,614.9 C970,647.5 945.6,680.6 945.6,680.6 L871.1,620.5 C871,620.6 856.6,631.9 856.6,652.6 Z" id="Path" fill="#0666db" fill-rule="nonzero"></path>
            <line x1="904.8" y1="1192.3" x2="940.5" y2="896.3" id="Path" stroke="#CED5E5" stroke-width="7" stroke-linecap="round" stroke-linejoin="round"></line>
            <line x1="1118.8" y1="1192.3" x2="1083.1" y2="896.3" id="Path" stroke="#CED5E5" stroke-width="7" stroke-linecap="round" stroke-linejoin="round"></line>
            <line x1="1264.3" y1="1192.3" x2="1228.6" y2="896.3" id="Path" stroke="#CED5E5" stroke-width="7" stroke-linecap="round" stroke-linejoin="round"></line>
            <path d="M1054.5,556.6 L1052.4,539.9 L1078.7,534.1 L1087.5,556.3 C1087.4,556.2 1077,565.8 1054.5,556.6 Z" id="Path" fill="#FFDFD7" fill-rule="nonzero"></path>
            <path d="M1052.4,539.9 C1052.4,539.9 1024.9,548.7 1020.3,535.7 C1015.7,522.8 1016.1,489.4 1020.3,462.2 C1024.5,435 1071.2,438 1087.5,453.4 C1103.8,468.8 1078.7,534 1078.7,534 L1052.4,539.9 Z" id="Path" fill="#FFDFD7" fill-rule="nonzero"></path>
            <polygon id="Path" fill="#CED5E5" fill-rule="nonzero" points="647.2 1192.3 607.1 786.6 632.2 786.6 672.2 1192.3"></polygon>
            <polygon id="Path" fill="#CED5E5" fill-rule="nonzero" points="445.2 1192.3 485.3 786.6 460.3 786.6 420.2 1192.3"></polygon>
            <line x1="1013.1" y1="662.6" x2="1030" y2="630" id="Path" stroke="#084a9b" stroke-width="4" stroke-linecap="round" stroke-linejoin="round"></line>
            <path d="M871,620.6 C871,620.6 839.7,597.5 826.3,597 C812.9,596.5 839.5,614.4 839.5,614.4 C839.5,614.4 821.7,633.7 856.7,650.1 L871,620.6 Z" id="Path" fill="#FFDFD7" fill-rule="nonzero"></path>
            <path d="M1020.2,462.2 C1020.2,462.2 1010.7,458.3 1011.8,449.5 C1012.9,440.7 1013.3,429.9 1030,425.4 C1046.7,420.9 1052.4,435 1087.4,440.7 C1106.3,443.8 1109.7,500.6 1078.6,534 C1078.6,534 1061.1,540 1058.3,534 C1055.5,528 1047.1,506.3 1047.1,506.3 C1047.1,506.3 1055,502 1056.7,490.1 C1058.3,478.2 1044.7,473.1 1041.7,477.9 C1038.7,482.7 1037.8,497.2 1037.8,497.2 L1033.2,494.9 L1032.3,470 L1020.2,462.2 Z" id="Path" fill="#FE8163" fill-rule="nonzero"></path>
            <path d="M940.5,1100.1 L947.4,1124.5 C947.4,1124.5 925.1,1144.5 919.1,1159.6 C913.1,1174.7 919.1,1188.7 919.1,1188.7 L990.9,1133.5 L976.7,1086.9 L940.5,1100.1 Z" id="Path" fill="#283444" fill-rule="nonzero"></path>
            <line x1="1160" y1="614.6" x2="1194.9" y2="681" id="Path" stroke="#084a9b" stroke-width="4" stroke-linecap="round" stroke-linejoin="round"></line>
            <line x1="1071.7" y1="0.8" x2="1071.7" y2="142.4" id="Path" stroke="#CED5E5" stroke-width="4" stroke-linecap="round" stroke-linejoin="round"></line>
            <polygon id="Path" fill="#F1F2F7" fill-rule="nonzero" points="1071.7 142.4 998.3 180.7 1145 180.7"></polygon>
            <path d="M914.8,870.5 L914.8,870.5 L1097,870.5 L1125.4,724.6 C1135.1,674.8 1178.7,638.9 1229.4,638.9 L1229.4,638.9 C1264.2,638.9 1290.9,669.8 1285.7,704.3 L1262,863.7 C1259.2,882.8 1242.8,896.9 1223.5,896.9 L941.1,896.9 C926.6,896.8 914.8,885 914.8,870.5 Z" id="Path" fill="#283444" fill-rule="nonzero"></path>
            <path d="M148.9,1071 C147.7,1071 146.7,1070 146.7,1068.8 L146.7,831 C146.7,829.8 147.7,828.8 148.9,828.8 C150.1,828.8 151.1,829.8 151.1,831 L151.1,1068.8 C151,1070 150.1,1071 148.9,1071 Z" id="Path" fill="#56b35f" fill-rule="nonzero"></path>
            <path d="M148.9,939.9 C148.9,939.9 43.7,932.9 30.4,877.4 C16.9,822 118.3,878.7 148.9,939.9 Z" id="Path" fill="#56b35f" fill-rule="nonzero"></path>
            <path d="M148.9,933.4 C148.9,933.4 230.3,921.6 238.7,876.8 C247.2,832 175,886.1 148.9,933.4 Z" id="Path" fill="#56b35f" fill-rule="nonzero"></path>
            <path d="M148.9,854 C148.9,854 238.3,830.5 253.1,776.8 C267.8,723 189.1,773.9 148.9,854 Z" id="Path" fill="#56b35f" fill-rule="nonzero"></path>
            <path d="M148.9,841.9 C148.9,841.9 56.1,806.7 59.4,747.9 C62.6,689.1 144.2,803.1 148.9,841.9 Z" id="Path" fill="#56b35f" fill-rule="nonzero"></path>
            <path d="M148.4,838.8 C148.4,838.8 122.8,690.2 162.8,672.3 C202.7,654.3 177.7,769.4 148.4,838.8 Z" id="Path" fill="#56b35f" fill-rule="nonzero"></path>
            <path d="M145,1192.3 L145,1192.3 C97.2,1192.3 58.5,1153.6 58.5,1105.8 L58.5,1044.3 L231.5,1044.3 L231.5,1105.8 C231.5,1153.5 192.7,1192.3 145,1192.3 Z" id="Path" fill="#CED5E5" fill-rule="nonzero"></path>
            <line x1="0.4" y1="1192.3" x2="297.5" y2="1192.3" id="Path" stroke="#CED5E5" stroke-width="3" stroke-linecap="round" stroke-linejoin="round"></line>
            <line x1="389.2" y1="1192.3" x2="525.4" y2="1192.3" id="Path" stroke="#CED5E5" stroke-width="3" stroke-linecap="round" stroke-linejoin="round"></line>
            <line x1="1209.7" y1="1192.3" x2="1345.9" y2="1192.3" id="Path" stroke="#CED5E5" stroke-width="3" stroke-linecap="round" stroke-linejoin="round"></line>
            <line x1="586.5" y1="1192.3" x2="1164.9" y2="1192.3" id="Path" stroke="#CED5E5" stroke-width="3" stroke-linecap="round" stroke-linejoin="round"></line>
        </g>
    </g>
</svg>