<svg xmlns="http://www.w3.org/2000/svg" viewBox="0 0 500 500"><g id="background-simple--inject-41"><path d="M422.92,170c-47.23-68.68-162.18-102.21-222.69-33.76-13.44,15.21-18.82,36.16-36.79,47.94-14.73,9.66-40.52,2.61-64.12,11.37-45.19,16.79-72.35,82.65-20.7,115,37.11,23.21,92.29.54,130.67-1.75,46.41-2.77,78.6,23.54,123.27,26C420.18,339.45,471.79,241,422.92,170Z" style="fill:#0666DB"></path><path d="M422.92,170c-47.23-68.68-162.18-102.21-222.69-33.76-13.44,15.21-18.82,36.16-36.79,47.94-14.73,9.66-40.52,2.61-64.12,11.37-45.19,16.79-72.35,82.65-20.7,115,37.11,23.21,92.29.54,130.67-1.75,46.41-2.77,78.6,23.54,123.27,26C420.18,339.45,471.79,241,422.92,170Z" style="fill:#fff;opacity:0.9"></path></g><g id="Shadow--inject-41"><ellipse id="path--inject-41" cx="250" cy="416.24" rx="193.89" ry="11.32" style="fill:#f5f5f5"></ellipse></g><g id="Character--inject-41"><path d="M416.61,391.61H188.89l-.83-98.37a17.17,17.17,0,0,1,17.45-17.43H412.57a16.89,16.89,0,0,1,17,19.43Z" style="fill:#0666DB"></path><path d="M427.49,279.94a19.75,19.75,0,0,0-14.92-6.63H399v-1h13.57a20.73,20.73,0,0,1,15.67,7Z" style="fill:#0666DB"></path><rect x="386.46" y="272.31" width="6.88" height="1" style="fill:#0666DB"></rect><path d="M416.61,391.61H188.89l-.83-98.37a17.17,17.17,0,0,1,17.45-17.43H412.57a16.89,16.89,0,0,1,17,19.43Z" style="fill:#fff;opacity:0.1"></path><path d="M411,288.65l-10.72,85.21,16.37,17.75,13-96.37a17.35,17.35,0,0,0-2.11-11C423.37,277.09,412,280.2,411,288.65Z" style="fill:#0666DB"></path><path d="M222.3,398.61,205.73,330.2A13.16,13.16,0,0,0,193,320.31H170.31l5.7,78.3Z" style="fill:#0666DB"></path><path d="M222.3,398.61,205.73,330.2A13.16,13.16,0,0,0,193,320.31H170.31l5.7,78.3Z" style="opacity:0.2"></path><path d="M203.82,398.61,186.64,330.2a13.32,13.32,0,0,0-12.8-9.89h-15.4a6.56,6.56,0,0,0-6.73,7.14l5.82,71.16Z" style="fill:#0666DB"></path><path d="M215.88,287.45a2.52,2.52,0,0,1-1.38.77,6.13,6.13,0,0,0-2.42,1.08,2.2,2.2,0,0,0-.91,2.12c.21.89,1.15,1.63,1.07,2.53s-.93,1.37-1.68,1.87a6.36,6.36,0,0,0-1.47,1.25,2.05,2.05,0,0,0-.5,1.67,2.31,2.31,0,0,0,.67,1.14,5.15,5.15,0,0,0,4.61,1.22,4.7,4.7,0,0,0,3.46-2.91,1.38,1.38,0,0,1,.21-.48,1.63,1.63,0,0,1,1-.47,19.46,19.46,0,0,1,5.6,0,5.37,5.37,0,0,0,1.79,0,3.43,3.43,0,0,0,1.63-1.08,2.18,2.18,0,0,0,.7-2.18c-.34-.87-1.51-1.27-2.58-1.36-.72-.06-1.59-.07-2-.59s0-1.36.6-1.82a8.16,8.16,0,0,0,1.82-1.36,2.26,2.26,0,0,0,.42-1.19,1.71,1.71,0,0,0-.25-1.14,3,3,0,0,0-1.79-.85,3.76,3.76,0,0,0-1.82-.08,5.21,5.21,0,0,0-1.2.67,1.88,1.88,0,0,1-1.33.34c-.72-.17-1-.91-1.29-1.47a3.57,3.57,0,0,0-1.75-1.43c-.55-.22-1.71-.68-2.24-.23a.75.75,0,0,0-.17.78,6.08,6.08,0,0,0,1,1.57A1.35,1.35,0,0,1,215.88,287.45Z" style="fill:#0666DB"></path><path d="M220.14,304.26a.79.79,0,0,0,.44-.44.72.72,0,0,0-.16-.54,2.88,2.88,0,0,0-.86-.69,3.45,3.45,0,0,0-1.95-.56,1.77,1.77,0,0,0-1.42.87c-.37.71.12,1.07.67,1.44A3.31,3.31,0,0,0,220.14,304.26Z" style="fill:#0666DB;opacity:0.5"></path><path d="M212.76,307.54a.76.76,0,0,0-.27.29.58.58,0,0,0,0,.34.87.87,0,0,0,.24.43.77.77,0,0,0,.71.32,1.19,1.19,0,0,0,.77-.57.68.68,0,0,0,0-.91C213.88,307,213.27,307.2,212.76,307.54Z" style="fill:#0666DB;opacity:0.5"></path><path d="M393,296.17a3.17,3.17,0,0,0,2.26-1.27,2.75,2.75,0,0,0,0-2.33,11.35,11.35,0,0,0-2.64-3.81,14.51,14.51,0,0,0-7.19-4.5,7.38,7.38,0,0,0-6.76,1.85c-2.3,2.42-.72,4.45,1,6.58C382.72,296.4,388.43,297.1,393,296.17Z" style="fill:#0666DB;opacity:0.5"></path><path d="M362.64,297.81a3,3,0,0,0-1.41.85,2.33,2.33,0,0,0-.52,1.32,3.86,3.86,0,0,0,.43,2,3.35,3.35,0,0,0,2.51,2.14,5.06,5.06,0,0,0,3.76-1.43c1.69-1.5,1.37-2.56,1-3.67C367.73,297.1,365.08,297,362.64,297.81Z" style="fill:#0666DB;opacity:0.5"></path><polygon points="391.67 398.61 157.53 398.61 154.3 359.18 394.23 359.18 391.67 398.61" style="fill:#0666DB"></polygon><path d="M422.69,398.61h-31l-6.26-78.3h40.31a6.57,6.57,0,0,1,6.69,7.53Z" style="fill:#0666DB"></path><path d="M422.69,398.61h-31l-6.26-78.3h40.31a6.57,6.57,0,0,1,6.69,7.53Z" style="opacity:0.2"></path><path d="M345.38,398.61l16-68.41A13,13,0,0,1,374,320.31h15.39a6.7,6.7,0,0,1,6.86,7.14l-4.62,71.16Z" style="fill:#0666DB"></path><polygon points="351.79 371.24 333.44 371.24 334.4 344.9 357.96 344.9 351.79 371.24" style="fill:#0666DB"></polygon><polygon points="351.79 371.24 333.44 371.24 334.4 344.9 357.96 344.9 351.79 371.24" style="opacity:0.2"></polygon><path d="M333.45,371.24H186a6.36,6.36,0,0,1-6.36-5.71l-1-14.8a5.47,5.47,0,0,1,5.63-5.83H334.4a5.67,5.67,0,0,1,5.81,5.83l-.58,14.8A6.13,6.13,0,0,1,333.45,371.24Z" style="fill:#0666DB"></path><path d="M333.45,371.24H186a6.36,6.36,0,0,1-6.36-5.71l-1-14.8a5.47,5.47,0,0,1,5.63-5.83H334.4a5.67,5.67,0,0,1,5.81,5.83l-.58,14.8A6.13,6.13,0,0,1,333.45,371.24Z" style="fill:#fff;opacity:0.2"></path><polygon points="383.11 413.32 387.33 413.32 387.33 398.61 380.21 398.61 383.11 413.32" style="fill:#263238"></polygon><polygon points="414.13 413.32 418.35 413.32 418.35 398.61 411.24 398.61 414.13 413.32" style="fill:#263238"></polygon><polygon points="197.11 413.32 192.89 413.32 192.89 398.61 200 398.61 197.11 413.32" style="fill:#263238"></polygon><polygon points="166.09 413.32 161.87 413.32 161.87 398.61 168.98 398.61 166.09 413.32" style="fill:#263238"></polygon><path d="M325.15,249.78c-1.37,3.35-2.84,6.72-4.29,10.07s-2.94,6.69-4.44,10L312,279.81c-1.43,3.3-2.93,6.6-4.21,9.76l-.58,1.44a7.12,7.12,0,0,1-7.18,4.42,31.5,31.5,0,0,0-3.47-.15,23.16,23.16,0,0,0-3.34.3,17.86,17.86,0,0,0-3.29.84,16,16,0,0,0-1.61.66c-.27.12-.53.24-.78.37l-.37.17-.16.06-.07,0s-.05,0,0-.09a4.77,4.77,0,0,1-8.4-4.51,3.66,3.66,0,0,0,.15-.36l.09-.25.17-.45c.12-.28.23-.56.35-.82.25-.53.51-1,.79-1.52A19.5,19.5,0,0,1,282,287a23.31,23.31,0,0,1,5-4.44,26.64,26.64,0,0,1,5.91-2.92,30.83,30.83,0,0,1,6.24-1.51L291.33,284c1.12-3.81,2.31-7.37,3.58-10.93l1.92-5.29,2-5.22c1.33-3.48,2.76-6.91,4.19-10.33s2.93-6.81,4.54-10.2a9.62,9.62,0,0,1,17.61,7.74Z" style="fill:#ffc3bd"></path><path d="M310.19,237.83c7.13-9.34,27.82-9.81,44.68-6.16a20.88,20.88,0,0,1,15.63,14.27c8.06,26.73-1.79,72.26-18.88,85-19.9,14.84-51.29,5.6-60.94-7.83-6.88-9.58-2.24-30.07,6.67-43.44C297.65,265.08,303.28,246.88,310.19,237.83Z" style="fill:#0666DB"></path><path d="M310.19,237.83c7.13-9.34,27.82-9.81,44.68-6.16a20.88,20.88,0,0,1,15.63,14.27c8.06,26.73-1.79,72.26-18.88,85-19.9,14.84-51.29,5.6-60.94-7.83-6.88-9.58-2.24-30.07,6.67-43.44C297.65,265.08,303.28,246.88,310.19,237.83Z" style="opacity:0.4"></path><path d="M345.25,230.72c-6.48-4.43-9.63-16.1-10.79-23.2l-12.95,20c4.05,4.63,5.36,4.71-1.49,11-5.6,5.13,16.64,4.82,25.32-1.28A4,4,0,0,0,345.25,230.72Z" style="fill:#ffc3bd"></path><path d="M330.9,221.42a8.89,8.89,0,0,0-1.72-5.75l-7.67,11.84a28.88,28.88,0,0,1,3,3.58C327.51,230.62,330.49,226.22,330.9,221.42Z" style="opacity:0.2"></path><path d="M301.58,195.29c-.87,8.72,1.13,15.92,1.82,23.78,6.62-2.52,4.28-26.13,4.28-26.13Z" style="fill:#263238"></path><path d="M333.59,199.4c1,10.94,2.21,17.29-2.38,23.71-6.91,9.66-21.06,6.81-25.35-3.6-3.87-9.36-4.92-25.67,5-31.65A15,15,0,0,1,333.59,199.4Z" style="fill:#ffc3bd"></path><path d="M325.28,189.8c-6,4.6-16.33,8.58-16.33,8.58s1.86-3.12,2-4.79c-7.84,1.47-11.27,6.12-11.27,6.12s-2.91-6.64,4.7-15c5-5.54,21.71-10.43,25.92-1.32,6.69-3.16,13.67,5.36,10.11,12s-11.08,7.51-11.47,22.91c-4-.39-6.56-7-6.56-7,3.56-1.57,5.8-10.18,5.38-13.32C326.26,198.31,323.19,192.35,325.28,189.8Z" style="fill:#263238"></path><path d="M327.63,183.67c2.07-2.75,1.7-5.67.87-8.42C334,178.78,333.19,185.23,327.63,183.67Z" style="fill:#263238"></path><path d="M340.46,187.72l-5.87,15.86c-.77.52,6.75,5.59,9.29-5.69C339.23,197.86,343.41,191.89,340.46,187.72Z" style="fill:#263238"></path><path d="M328.89,233.86a72.31,72.31,0,0,0,2.49-8.52,10.32,10.32,0,0,0,2.06-5.62c.45-5-3.64-10.26-3.32-14.57l-3.88,7.29a4.74,4.74,0,0,0-1-.54c-4.7-1.94-11.92,1.06-14.71,3.06-14.66-1.15-1.92,8.81-5.2,23.18-2.81,12.34,10.78,10.92,12.5,30.81a69.31,69.31,0,0,0,5.62-7c7.4-5.88,6.44-9.63,5.23-14.29-.13-.53-.27-1.07-.4-1.62-.15-1.3-.39-2.56-.63-3.84A20.14,20.14,0,0,1,328.89,233.86Zm-.47-.16a21.74,21.74,0,0,0-1.22,5.71,24.66,24.66,0,0,1-.19-6.83c.63-3.12,2.22-4.62,3.67-6.36A77.33,77.33,0,0,1,328.42,233.7Zm-4,26.81c3.08-4.87,4-8.58,4-11.9C329.45,252.57,329.84,255.78,324.43,260.51Z" style="fill:#263238"></path><path d="M316.34,203.59c-.57.09-.93.88-.79,1.76l2.09-.33C317.5,204.14,316.92,203.5,316.34,203.59Z" style="fill:#263238"></path><path d="M306.38,205.16c-.58.09-.94.88-.8,1.76l2.09-.33C307.53,205.71,307,205.07,306.38,205.16Z" style="fill:#263238"></path><path d="M310.91,206.53s-1.2,5.41-3,8.21c1.79,1.21,4.33.13,4.33.13Z" style="fill:#ed847e"></path><path d="M320.49,198.29a.51.51,0,0,1-.52.24,4.19,4.19,0,0,0-3.62,1.12.52.52,0,0,1-.78-.7,5.21,5.21,0,0,1,4.55-1.46.53.53,0,0,1,.45.6A.5.5,0,0,1,320.49,198.29Z" style="fill:#263238"></path><path d="M301.84,201.21a.47.47,0,0,1-.25-.25.52.52,0,0,1,.26-.69,5.18,5.18,0,0,1,4.78.11.52.52,0,0,1,.17.72.54.54,0,0,1-.73.17,4.11,4.11,0,0,0-3.79-.05A.49.49,0,0,1,301.84,201.21Z" style="fill:#263238"></path><path d="M339.35,205.51a10.8,10.8,0,0,1-4.35,6.6c-2.93,2-5.33-.47-5.3-3.92,0-3.12,1.58-7.91,4.89-8.52S340,202.19,339.35,205.51Z" style="fill:#ffc3bd"></path><path d="M308.16,206.42a4.58,4.58,0,0,1-3.2,3C309.51,210.44,308.16,206.42,308.16,206.42Z" style="opacity:0.2"></path><path d="M314.26,205.49a4.6,4.6,0,0,0,4,1.67C314.79,209.22,314.26,205.49,314.26,205.49Z" style="opacity:0.2"></path><path d="M288.55,301.11c6.3-2.17,16-2.35,33.47-.08,8.1,1.05,6.24,13.19,5.38,17.41-2.26,11-10.11,18.07-26.62,20.83-20.36,3.41-34.45,4-48.69,6.27-4.55,18.41-24.19,42.08-31.44,44.3s-16.34-2.8-12.3-14.63,9.3-39.93,17.46-46.88C240.05,316.19,273.4,306.32,288.55,301.11Z" style="fill:#fff"></path><path d="M255.82,345c8.78-1.25,17.71-2,28.29-3.29a209.86,209.86,0,0,1,3.39-24.58C271.6,320.71,260.48,329.65,255.82,345Z" style="opacity:0.2"></path><path d="M208.54,415.68c.83-2.42-1.54-6,1.3-10.88s14-17.1,12.64-20.92-9.16-7.38-11.69-5.18-5.54,14.35-9.71,20.95-13,6.92-21.65,5.66c-1.22-.17-1,3.34,1.74,4.29,6.71,2.38,12.88,2.53,16.49,4.31,3.09,1.52,3.24,2.85,6.75,4.15C206.58,418.86,207.71,418.12,208.54,415.68Z" style="fill:#ffc3bd"></path><path d="M319.7,301c24.49-.32,36.33,7,38.43,15.38,3,12.08,1.35,22.35-13.42,27.62-18.12,6.45-38,1.87-51.65,4.18-.81,18.66-15.46,42.66-22.17,44.91s-16.68-2.82-15.07-14.82.42-34.63,10.41-47.33C279.08,314.64,305.05,301.22,319.7,301Z" style="fill:#fff"></path><path d="M345,327.81a4.86,4.86,0,0,1-2,.14,9.85,9.85,0,0,0-3.2,0,9.1,9.1,0,0,0-3.62,1.46c-1.11.82-1.49,1.79-2.82,2.52a10.26,10.26,0,0,1-3.79,1,17.13,17.13,0,0,0-2.77.51,8.83,8.83,0,0,0-2.71,1.23,4,4,0,0,0-1.14,1.21c-.8,1.33-.18,2.42,1.46,2.71a12.6,12.6,0,0,0,6.5-1.19,6.32,6.32,0,0,1,.82-.32,2.67,2.67,0,0,1,1.37,0A8.84,8.84,0,0,1,337,339.1a2.34,2.34,0,0,0,1.28.63,7.72,7.72,0,0,0,2.65-.31,9.32,9.32,0,0,0,3.55-1.58c1-.86.74-1.63.12-2.09-.42-.31-1-.64-.54-1.23a5.31,5.31,0,0,1,3-1.31,22.76,22.76,0,0,0,3.17-.48,9.88,9.88,0,0,0,2-.86,5.25,5.25,0,0,0,1.43-1.05,1,1,0,0,0,0-1.37,1.46,1.46,0,0,0-1.15-.74,10.32,10.32,0,0,0-1.77.13c-.61.06-1.22.05-1.39-.21s.61-1.11,1.18-1.71a2.29,2.29,0,0,0,.8-1.84c-.07-.39-.23-1.2-1.24-1a3,3,0,0,0-1.2.6,9.23,9.23,0,0,0-1.51,1.69A4.68,4.68,0,0,1,345,327.81Z" style="fill:#263238;opacity:0.08"></path><path d="M267.83,419c.17-2.56-3.08-5.43-1.61-10.85s9-20.18,6.69-23.5-10.76-4.71-12.63-1.93-1.57,15.3-3.86,22.77-10.69,10.08-19.4,11.16c-1.22.15,0,3.46,2.8,3.67,7.1.54,13.09-.94,17-.17,3.39.66,3.88,1.89,7.61,2.22C266.77,422.57,267.67,421.55,267.83,419Z" style="fill:#ffc3bd"></path><path d="M317.05,298.22c-2.39-6.1-9-6.51-12.95-9.13-.68-.44-2.43.83-1.89,2.19a8.06,8.06,0,0,0,4.52,4.57c-.06,2,.76,8.07,6.54,8.3C315.57,302.22,317.05,298.22,317.05,298.22Z" style="fill:#ffc3bd"></path><path d="M283.51,285.27,276.88,293l9.81,8.12s8.77-5.86,3.8-13.06Z" style="fill:#ffc3bd"></path><path d="M291.37,291c-3.41-5.6-9.94-4.87-14.33-6.75-.75-.32-2.25,1.23-1.48,2.48a8,8,0,0,0,5.24,3.72c.29,2,2.14,7.81,7.88,7.05C290.61,295.19,291.37,291,291.37,291Z" style="fill:#ffc3bd"></path><path d="M274.74,303.27l1.59,1.44a4.7,4.7,0,0,0,6.29,0l4.07-3.61L276.88,293,274,297.1A4.72,4.72,0,0,0,274.74,303.27Z" style="fill:#ffc3bd"></path><path d="M309.64,302.88a36.31,36.31,0,0,0-4.79-11.07c-2-3.07-4.66-4-10.75-4.36a4.74,4.74,0,0,0-3.79,1.29l-5.48-.35c-1.85-1.32-4.42-1.83-8.65-2.11-6.3-.41-6.06,8.22-6.06,8.22s-2.6,2.07,5.7,2.61l4.44.29c2.36,2.21,6.47,5.94,7.47,6,1.43.09,4.38.28,4-1.7a23.94,23.94,0,0,0-1.09-3.63l2.59.17h0l.52,0c2.69.18,2.75-1.31,2.75-1.31s7.73,7.51,9.16,7.61S310,304.86,309.64,302.88Z" style="fill:#263238"></path><rect x="268.41" y="291.79" width="10.25" height="2" rx="0.96" transform="translate(30.45 -25.73) rotate(5.7)" style="fill:#0666DB"></rect><rect x="289.08" y="293.28" width="10.25" height="2" rx="0.96" transform="translate(30.71 -27.78) rotate(5.7)" style="fill:#0666DB"></rect><path d="M365.85,247.75c.2,2.13.33,4,.42,6s.14,4,.17,5.93c0,4,0,7.94-.29,12a104.89,104.89,0,0,1-1.42,12.28,64.5,64.5,0,0,1-1.47,6.46,36.63,36.63,0,0,1-2.84,7.11l-.25.47a7.43,7.43,0,0,1-2.59,2.77,46.22,46.22,0,0,1-13.37,5.41,91.48,91.48,0,0,1-12.75,2.19q-6.29.63-12.48.65a118.4,118.4,0,0,1-12.44-.56,4.8,4.8,0,0,1-.39-9.5l.17,0c3.73-.69,7.64-1.4,11.41-2.19s7.54-1.64,11.19-2.62c1.82-.49,3.62-1,5.38-1.54s3.47-1.16,5.12-1.78a34.43,34.43,0,0,0,8.35-4.37l-2.84,3.24a22.29,22.29,0,0,0,1-3.62c.26-1.47.51-3.07.67-4.73s.29-3.38.37-5.12.15-3.52.18-5.3c0-3.57,0-7.2-.07-10.84l-.16-5.47-.21-5.36V249a9.62,9.62,0,0,1,19.19-1.25Z" style="fill:#ffc3bd"></path><path d="M324.89,279.55a1.89,1.89,0,0,0-.75,1.37,1.7,1.7,0,0,0,.75,1.19,7,7,0,0,0,2.57,1.1,8.73,8.73,0,0,0,5.11,0,4.49,4.49,0,0,0,2.87-3.1c.41-2-1.05-2.51-2.62-3C330.05,276.17,326.91,277.63,324.89,279.55Z" style="fill:#0666DB;opacity:0.5"></path><path d="M327,275.22a.82.82,0,0,0,.47-.46.67.67,0,0,0-.16-.55,2.88,2.88,0,0,0-.88-.75,3.59,3.59,0,0,0-2-.62,1.86,1.86,0,0,0-1.5.88c-.4.73.11,1.12.67,1.51A3.45,3.45,0,0,0,327,275.22Z" style="fill:#0666DB;opacity:0.5"></path><path d="M319.23,278.48a.78.78,0,0,0-.28.29.55.55,0,0,0,0,.35.91.91,0,0,0,.23.46.83.83,0,0,0,.74.35,1.26,1.26,0,0,0,.81-.58.7.7,0,0,0,0-1C320.41,278,319.77,278.13,319.23,278.48Z" style="fill:#0666DB;opacity:0.5"></path><path d="M305.89,259.9a.79.79,0,0,0-.26-.59.73.73,0,0,0-.58-.05,2.83,2.83,0,0,0-1,.56,3.61,3.61,0,0,0-1.29,1.68,1.81,1.81,0,0,0,.29,1.71c.55.63,1.09.29,1.65-.09A3.46,3.46,0,0,0,305.89,259.9Z" style="fill:#0666DB;opacity:0.5"></path><path d="M308.07,259.5a.75.75,0,0,0,.18.37.62.62,0,0,0,.31.16,1,1,0,0,0,.51-.06.83.83,0,0,0,.59-.57,1.28,1.28,0,0,0-.26-1,.71.71,0,0,0-.89-.33C308,258.22,307.94,258.87,308.07,259.5Z" style="fill:#0666DB;opacity:0.5"></path><path d="M314.41,308.05l-10.07,1.58L302.57,297s8.28-3,10.38,1.18Z" style="fill:#ffc3bd"></path><path d="M294.48,306.08l-.39-2.11a4.7,4.7,0,0,1,3.27-5.37l5.21-1.57,1.77,12.6-5,.28A4.72,4.72,0,0,1,294.48,306.08Z" style="fill:#ffc3bd"></path><path d="M309.76,181.87a4.71,4.71,0,0,1-7-4.11c6.56,4.17,28.92-5.94,27.54,5.59C313.83,184.2,313.85,179.57,309.76,181.87Z" style="fill:#263238"></path><polygon points="389.47 293.14 377.47 293.14 376.47 294.39 376.47 319.06 377.47 320.31 389.47 320.31 390.47 319.06 390.47 294.39 389.47 293.14" style="fill:#263238"></polygon><path d="M388.9,292H378a.57.57,0,0,0-.57.57h0a.56.56,0,0,0,.57.57H388.9a.57.57,0,0,0,.57-.57h0A.58.58,0,0,0,388.9,292Z" style="fill:#e0e0e0"></path><polygon points="387.19 305.38 384.77 305.38 386.23 299.32 379.74 308.07 382.17 308.07 380.71 314.12 387.19 305.38" style="fill:#fff"></polygon><polygon points="229.77 249.89 229.77 274.56 228.77 275.81 216.77 275.81 215.77 274.56 215.77 249.89 216.77 248.64 228.77 248.64 229.77 249.89" style="fill:#263238"></polygon><path d="M228.21,247.5H217.34a.58.58,0,0,0-.57.57h0a.57.57,0,0,0,.57.57h10.87a.56.56,0,0,0,.56-.57h0A.57.57,0,0,0,228.21,247.5Z" style="fill:#e0e0e0"></path><polygon points="220.13 260.88 215.77 266.75 215.77 259.39 219.16 254.82 217.7 260.88 220.13 260.88" style="fill:#fff"></polygon><polygon points="229.77 259.62 229.77 266.97 227.8 269.62 229.26 263.57 226.84 263.57 229.77 259.62" style="fill:#fff"></polygon><polygon points="409.1 303.96 408.79 307.42 408.82 310.33 408.82 310.34 408.92 319.28 407.93 320.38 395.94 320.26 394.93 319.14 394.83 310.32 394.8 307.39 395.09 303.98 395.7 296.62 396.8 295.61 408.75 296.67 409.65 297.87 409.1 303.96" style="fill:#263238"></polygon><path d="M408.34,295.62l-10.95-1a.5.5,0,0,0-.54.46h0a.51.51,0,0,0,.46.55l10.94,1a.51.51,0,0,0,.55-.46h0A.51.51,0,0,0,408.34,295.62Z" style="fill:#e0e0e0"></path><polygon points="397.51 307.09 394.83 310.32 394.8 307.39 395.09 303.98 397.04 301.85 395.09 307.07 397.51 307.09" style="fill:#fff"></polygon><polygon points="408.79 307.42 408.82 310.33 408.82 310.34 405.12 314.8 406.51 309.43 404.09 309.41 409.1 303.96 408.79 307.42" style="fill:#fff"></polygon><path d="M310,417a18.54,18.54,0,0,1-3,.32c-1.94.09-3.86.22-5.32.44s-2.37.56-2,.88,2.52.67,2.34,1-2,.57-3.68.77a30.9,30.9,0,0,0-3.23.52c-.86.2-1.37.45-1.11.69a4,4,0,0,0,1.48.47,51.81,51.81,0,0,0,10.13.5c3.6-.15,6.57-.63,7.59-1.2a1.64,1.64,0,0,1,.47-.2,14.73,14.73,0,0,1,2.24-.19c4-.15,8.21-.08,12.31,0,1.31,0,2.67.05,3.94,0a23.2,23.2,0,0,0,3.58-.44c1.24-.26,2.19-.59,1.54-.9s-3.33-.52-5.67-.56a27.92,27.92,0,0,1-4.39-.24c-1-.24,0-.56,1.34-.75s3-.32,4-.56c.58-.15.83-.32.91-.5s0-.33-.54-.46a24.25,24.25,0,0,0-3.92-.35c-1.32-.06-2.73-.11-4,0-1,.06-1.78.18-2.63.28a19.38,19.38,0,0,1-2.93.14,8.1,8.1,0,0,1-2.83-.61,18.75,18.75,0,0,0-3.85-.59,28.9,28.9,0,0,0-4.92-.09c-.51.08-.53.21-.36.32a12.66,12.66,0,0,0,2.21.65C310.64,416.58,310.68,416.81,310,417Z" style="fill:#0666DB"></path><path d="M331.6,405H315.41a7,7,0,0,0,0,14H331.6a7,7,0,0,0,0-14Z" style="fill:#263238"></path><polygon points="327.82 408.24 327.82 410.66 323.58 409.2 329.71 415.69 329.71 413.27 333.96 414.73 327.82 408.24" style="fill:#fff"></polygon><path d="M319.65,407.69a6,6,0,1,1-8.48.06A6,6,0,0,1,319.65,407.69Z" style="fill:#e0e0e0"></path><path d="M318.9,415.39h0a1.36,1.36,0,0,1-1.92,0l-1.31-1.29a1.36,1.36,0,0,1,0-1.92h0a1.36,1.36,0,0,1,1.93,0l1.3,1.28A1.37,1.37,0,0,1,318.9,415.39Z" style="fill:#263238"></path></g><g id="TV--inject-41"><polygon points="170.07 361.71 30.19 361.71 24.91 270.62 164.79 270.62 170.07 361.71" style="fill:#263238"></polygon><polygon points="145.01 346.86 142.23 346.86 138.67 285.47 141.45 285.47 145.01 346.86"></polygon><polygon points="170.07 361.71 168.01 361.71 162.73 270.62 164.79 270.62 170.07 361.71"></polygon><polygon points="142.23 346.86 49.97 346.86 46.41 285.47 138.67 285.47 142.23 346.86" style="fill:#fff;opacity:0.1"></polygon><polygon points="87.23 361.71 110.12 361.71 105.75 317.83 82.86 317.83 87.23 361.71" style="opacity:0.30000000000000004"></polygon><polygon points="95.7 369.89 72.61 369.89 81.13 316.16 104.22 316.16 95.7 369.89" style="fill:#263238"></polygon><polygon points="95.7 369.89 97.49 369.89 106.01 316.16 104.22 316.16 95.7 369.89"></polygon><polygon points="62.46 343.97 53.23 343.97 53.09 342.99 62.32 342.99 62.46 343.97"></polygon><polygon points="62.35 342.17 53.13 342.17 52.99 341.19 62.21 341.19 62.35 342.17"></polygon><polygon points="62.25 340.36 53.02 340.36 52.88 339.39 62.11 339.39 62.25 340.36"></polygon><path d="M136.09,369.9H56.14a5.27,5.27,0,0,0-5.21,4.46l-8.34,54.1a9.64,9.64,0,0,0,9.53,11.11h88a9.64,9.64,0,0,0,9.53-11.11l-8.34-54.1A5.27,5.27,0,0,0,136.09,369.9Z" style="fill:#0666DB"></path><path d="M136.09,369.9H56.14a5.27,5.27,0,0,0-5.21,4.46l-8.34,54.1a9.64,9.64,0,0,0,9.53,11.11h88a9.64,9.64,0,0,0,9.53-11.11l-8.34-54.1A5.27,5.27,0,0,0,136.09,369.9Z" style="fill:#263238;opacity:0.6000000000000001"></path><path d="M136.09,369.9h-9.62a5.27,5.27,0,0,0-5.21,6.07l8.55,55.43a9.64,9.64,0,0,0,9.53,8.17h.77a9.64,9.64,0,0,0,9.53-11.11l-8.34-54.1A5.27,5.27,0,0,0,136.09,369.9Z" style="fill:#263238"></path></g></svg>
